<svg width="52" height="30" viewBox="0 0 52 30" fill="none" xmlns="http://www.w3.org/2000/svg">
<path d="M7.07244 21.5068L0.318308 28.1794C-0.370477 28.8599 0.132286 30 1.12115 30H20.8788C21.8837 30 22.3792 28.8283 21.6582 28.157L14.4034 21.4019C12.352 19.4925 9.06415 19.5394 7.07244 21.5068Z" fill="#121212"/>
<path d="M17.0724 16.4932L10.3183 9.82055C9.62952 9.14008 10.1323 8 11.1212 8H30.8788C31.8837 8 32.3792 9.17173 31.6582 9.84302L24.4034 16.5981C22.352 18.5075 19.0642 18.4606 17.0724 16.4932Z" fill="#121212"/>
<path d="M27.0724 21.5068L20.3183 28.1794C19.6295 28.8599 20.1323 30 21.1212 30H40.8788C41.8837 30 42.3792 28.8283 41.6582 28.157L34.4034 21.4019C32.352 19.4925 29.0642 19.5394 27.0724 21.5068Z" fill="#121212"/>
<path d="M37.0724 16.4932L30.3183 9.82055C29.6295 9.14008 30.1323 8 31.1212 8H50.8788C51.8837 8 52.3792 9.17173 51.6582 9.84302L44.4034 16.5981C42.352 18.5075 39.0642 18.4606 37.0724 16.4932Z" fill="#121212"/>
<path d="M27.0724 1.5068L20.3183 8.17945C19.6295 8.85992 20.1323 10 21.1212 10H40.8788C41.8837 10 42.3792 8.82827 41.6582 8.15698L34.4034 1.40195C32.352 -0.507504 29.0642 -0.460595 27.0724 1.5068Z" fill="#121212"/>
</svg>
